<svg viewBox = "0 0 800 355.36" width="800" height="355.36" xmlns="http://www.w3.org/2000/svg"><g transform="matrix(1 0 0 1 400 177.68)"  ><g style=""   ><g transform="matrix(1 0 0 1 0.24 0.14)" id="OBJECTS"  ><path style="stroke: none; stroke-width: 1; stroke-dasharray: none; stroke-linecap: butt; stroke-dashoffset: 0; stroke-linejoin: miter; stroke-miterlimit: 4; fill: rgb(248,249,250); fill-rule: nonzero; opacity: 1;"  transform=" translate(-400.24, -177.82)" d="M 0.15 215.37 L 0.15 318.42 C 0.20494154712694496 338.6273891001257 16.572610899874334 354.9950584528731 36.78 355.05 L 569.54 355.05 C 569.9151535192693 348.4208112088594 575.4002045067936 343.2373895673531 582.04 343.2373895673531 C 588.6797954932064 343.2373895673531 594.1648464807306 348.4208112088594 594.54 355.05 L 763.69 355.05 C 783.8973891001257 354.9950584528731 800.2650584528731 338.6273891001257 800.32 318.42 L 800.32 37.22 C 800.2595684209676 17.01651624571549 783.8934995012943 0.6549152673251584 763.69 0.6000000000000014 L 594.57 0.6 C 594.1948464807307 7.229188791140619 588.7097954932065 12.412610432646908 582.07 12.412610432646908 C 575.4302045067936 12.412610432646908 569.9451535192694 7.229188791140621 569.57 0.6000000000000016 L 36.78 0.6 C 16.576500498705748 0.654915267325184 0.2104315790324094 17.01651624571551 0.15000000000000568 37.22000000000002 L 0.15 140.28" stroke-linecap="round" /></g><g transform="matrix(1 0 0 1 291.57 0.14)" id="OBJECTS"  ><path style="stroke: none; stroke-width: 1; stroke-dasharray: none; stroke-linecap: butt; stroke-dashoffset: 0; stroke-linejoin: miter; stroke-miterlimit: 4; fill: rgb(10,121,86); fill-rule: nonzero; opacity: 1;"  transform=" translate(-691.57, -177.82)" d="M 594.57 355.05 L 763.69 355.05 C 783.8973891001257 354.9950584528731 800.2650584528731 338.6273891001257 800.32 318.42 L 800.32 37.22 C 800.2595684209676 17.01651624571549 783.8934995012943 0.6549152673251584 763.69 0.6000000000000014 L 594.57 0.6 C 594.5657269624422 7.213027561689173 589.4114307103068 12.678510067142241 582.8100000000001 13.070000000000002 L 582.8100000000001 342.57 C 589.4152813979621 342.96171960086326 594.5710180563337 348.43311360566577 594.57 355.05 Z" stroke-linecap="round" /></g><g transform="matrix(1 0 0 1 135.43 74.05)" id="OBJECTS"  ><rect style="stroke: none; stroke-width: 1; stroke-dasharray: none; stroke-linecap: butt; stroke-dashoffset: 0; stroke-linejoin: miter; stroke-miterlimit: 4; fill: rgb(88,89,91); fill-rule: nonzero; opacity: 1;"  x="-26.63" y="-3.135" rx="0" ry="0" width="53.26" height="6.27" /></g><g transform="matrix(1 0 0 1 135.43 67.34)" id="OBJECTS"  ><rect style="stroke: none; stroke-width: 1; stroke-dasharray: none; stroke-linecap: butt; stroke-dashoffset: 0; stroke-linejoin: miter; stroke-miterlimit: 4; fill: rgb(88,89,91); fill-rule: nonzero; opacity: 1;"  x="-26.63" y="-1.565" rx="0" ry="0" width="53.26" height="3.13" /></g><g transform="matrix(1 0 0 1 135.43 62.23)" id="OBJECTS"  ><rect style="stroke: none; stroke-width: 1; stroke-dasharray: none; stroke-linecap: butt; stroke-dashoffset: 0; stroke-linejoin: miter; stroke-miterlimit: 4; fill: rgb(88,89,91); fill-rule: nonzero; opacity: 1;"  x="-26.63" y="-1.57" rx="0" ry="0" width="53.26" height="3.14" /></g><g transform="matrix(1 0 0 1 135.43 57.11)" id="OBJECTS"  ><rect style="stroke: none; stroke-width: 1; stroke-dasharray: none; stroke-linecap: butt; stroke-dashoffset: 0; stroke-linejoin: miter; stroke-miterlimit: 4; fill: rgb(88,89,91); fill-rule: nonzero; opacity: 1;"  x="-26.63" y="-1.57" rx="0" ry="0" width="53.26" height="3.14" /></g><g transform="matrix(1 0 0 1 135.43 36.01)" id="OBJECTS"  ><rect style="stroke: none; stroke-width: 1; stroke-dasharray: none; stroke-linecap: butt; stroke-dashoffset: 0; stroke-linejoin: miter; stroke-miterlimit: 4; fill: rgb(88,89,91); fill-rule: nonzero; opacity: 1;"  x="-26.63" y="-1.565" rx="0" ry="0" width="53.26" height="3.13" /></g><g transform="matrix(1 0 0 1 135.43 30.9)" id="OBJECTS"  ><rect style="stroke: none; stroke-width: 1; stroke-dasharray: none; stroke-linecap: butt; stroke-dashoffset: 0; stroke-linejoin: miter; stroke-miterlimit: 4; fill: rgb(88,89,91); fill-rule: nonzero; opacity: 1;"  x="-26.63" y="-1.57" rx="0" ry="0" width="53.26" height="3.14" /></g><g transform="matrix(1 0 0 1 135.43 25.79)" id="OBJECTS"  ><rect style="stroke: none; stroke-width: 1; stroke-dasharray: none; stroke-linecap: butt; stroke-dashoffset: 0; stroke-linejoin: miter; stroke-miterlimit: 4; fill: rgb(88,89,91); fill-rule: nonzero; opacity: 1;"  x="-26.63" y="-1.565" rx="0" ry="0" width="53.26" height="3.13" /></g><g transform="matrix(1 0 0 1 135.43 51.23)" id="OBJECTS"  ><rect style="stroke: none; stroke-width: 1; stroke-dasharray: none; stroke-linecap: butt; stroke-dashoffset: 0; stroke-linejoin: miter; stroke-miterlimit: 4; fill: rgb(88,89,91); fill-rule: nonzero; opacity: 1;"  x="-26.63" y="-3.135" rx="0" ry="0" width="53.26" height="6.27" /></g><g transform="matrix(1 0 0 1 135.43 42.95)" id="OBJECTS"  ><rect style="stroke: none; stroke-width: 1; stroke-dasharray: none; stroke-linecap: butt; stroke-dashoffset: 0; stroke-linejoin: miter; stroke-miterlimit: 4; fill: rgb(88,89,91); fill-rule: nonzero; opacity: 1;"  x="-26.63" y="-3.135" rx="0" ry="0" width="53.26" height="6.27" /></g><g transform="matrix(1 0 0 1 135.43 18.82)" id="OBJECTS"  ><rect style="stroke: none; stroke-width: 1; stroke-dasharray: none; stroke-linecap: butt; stroke-dashoffset: 0; stroke-linejoin: miter; stroke-miterlimit: 4; fill: rgb(88,89,91); fill-rule: nonzero; opacity: 1;"  x="-26.63" y="-3.135" rx="0" ry="0" width="53.26" height="6.27" /></g><g transform="matrix(1 0 0 1 135.43 11.54)" id="OBJECTS"  ><rect style="stroke: none; stroke-width: 1; stroke-dasharray: none; stroke-linecap: butt; stroke-dashoffset: 0; stroke-linejoin: miter; stroke-miterlimit: 4; fill: rgb(88,89,91); fill-rule: nonzero; opacity: 1;"  x="-26.63" y="-3.135" rx="0" ry="0" width="53.26" height="6.27" /></g><g transform="matrix(1 0 0 1 135.43 8.42)" id="OBJECTS"  ><rect style="stroke: none; stroke-width: 1; stroke-dasharray: none; stroke-linecap: butt; stroke-dashoffset: 0; stroke-linejoin: miter; stroke-miterlimit: 4; fill: rgb(88,89,91); fill-rule: nonzero; opacity: 1;"  x="-26.63" y="-3.135" rx="0" ry="0" width="53.26" height="6.27" /></g><g transform="matrix(1 0 0 1 135.43 1.71)" id="OBJECTS"  ><rect style="stroke: none; stroke-width: 1; stroke-dasharray: none; stroke-linecap: butt; stroke-dashoffset: 0; stroke-linejoin: miter; stroke-miterlimit: 4; fill: rgb(88,89,91); fill-rule: nonzero; opacity: 1;"  x="-26.63" y="-1.57" rx="0" ry="0" width="53.26" height="3.14" /></g><g transform="matrix(1 0 0 1 135.43 -3.42)" id="OBJECTS"  ><rect style="stroke: none; stroke-width: 1; stroke-dasharray: none; stroke-linecap: butt; stroke-dashoffset: 0; stroke-linejoin: miter; stroke-miterlimit: 4; fill: rgb(88,89,91); fill-rule: nonzero; opacity: 1;"  x="-26.63" y="-1.565" rx="0" ry="0" width="53.26" height="3.13" /></g><g transform="matrix(1 0 0 1 135.43 -8.53)" id="OBJECTS"  ><rect style="stroke: none; stroke-width: 1; stroke-dasharray: none; stroke-linecap: butt; stroke-dashoffset: 0; stroke-linejoin: miter; stroke-miterlimit: 4; fill: rgb(88,89,91); fill-rule: nonzero; opacity: 1;"  x="-26.63" y="-1.565" rx="0" ry="0" width="53.26" height="3.13" /></g><g transform="matrix(1 0 0 1 135.43 -29.62)" id="OBJECTS"  ><rect style="stroke: none; stroke-width: 1; stroke-dasharray: none; stroke-linecap: butt; stroke-dashoffset: 0; stroke-linejoin: miter; stroke-miterlimit: 4; fill: rgb(88,89,91); fill-rule: nonzero; opacity: 1;"  x="-26.63" y="-1.57" rx="0" ry="0" width="53.26" height="3.14" /></g><g transform="matrix(1 0 0 1 135.43 -34.73)" id="OBJECTS"  ><rect style="stroke: none; stroke-width: 1; stroke-dasharray: none; stroke-linecap: butt; stroke-dashoffset: 0; stroke-linejoin: miter; stroke-miterlimit: 4; fill: rgb(88,89,91); fill-rule: nonzero; opacity: 1;"  x="-26.63" y="-1.57" rx="0" ry="0" width="53.26" height="3.14" /></g><g transform="matrix(1 0 0 1 135.43 -39.85)" id="OBJECTS"  ><rect style="stroke: none; stroke-width: 1; stroke-dasharray: none; stroke-linecap: butt; stroke-dashoffset: 0; stroke-linejoin: miter; stroke-miterlimit: 4; fill: rgb(88,89,91); fill-rule: nonzero; opacity: 1;"  x="-26.63" y="-1.57" rx="0" ry="0" width="53.26" height="3.14" /></g><g transform="matrix(1 0 0 1 135.43 -14.41)" id="OBJECTS"  ><rect style="stroke: none; stroke-width: 1; stroke-dasharray: none; stroke-linecap: butt; stroke-dashoffset: 0; stroke-linejoin: miter; stroke-miterlimit: 4; fill: rgb(88,89,91); fill-rule: nonzero; opacity: 1;"  x="-26.63" y="-3.135" rx="0" ry="0" width="53.26" height="6.27" /></g><g transform="matrix(1 0 0 1 135.43 -22.68)" id="OBJECTS"  ><rect style="stroke: none; stroke-width: 1; stroke-dasharray: none; stroke-linecap: butt; stroke-dashoffset: 0; stroke-linejoin: miter; stroke-miterlimit: 4; fill: rgb(88,89,91); fill-rule: nonzero; opacity: 1;"  x="-26.63" y="-3.135" rx="0" ry="0" width="53.26" height="6.27" /></g><g transform="matrix(1 0 0 1 135.43 -46.83)" id="OBJECTS"  ><rect style="stroke: none; stroke-width: 1; stroke-dasharray: none; stroke-linecap: butt; stroke-dashoffset: 0; stroke-linejoin: miter; stroke-miterlimit: 4; fill: rgb(88,89,91); fill-rule: nonzero; opacity: 1;"  x="-26.63" y="-3.135" rx="0" ry="0" width="53.26" height="6.27" /></g><g transform="matrix(1 0 0 1 135.43 -52.02)" id="OBJECTS"  ><rect style="stroke: none; stroke-width: 1; stroke-dasharray: none; stroke-linecap: butt; stroke-dashoffset: 0; stroke-linejoin: miter; stroke-miterlimit: 4; fill: rgb(88,89,91); fill-rule: nonzero; opacity: 1;"  x="-26.63" y="-3.08" rx="0" ry="0" width="53.26" height="6.16" /></g><g transform="matrix(0 -1 1 0 168.05 -29.02)" style="" id="OBJECTS"  ><text xml:space="preserve" font-family="Bebas" font-size="5.85" font-style="normal" font-weight="normal" style="stroke: none; stroke-width: 1; stroke-dasharray: none; stroke-linecap: butt; stroke-dashoffset: 0; stroke-linejoin: miter; stroke-miterlimit: 4; fill: rgb(88,89,91); fill-rule: nonzero; opacity: 1; white-space: pre;" ><tspan x="-34.29" y="1.84" >09197517 3759231 021 21 A</tspan></text></g><g transform="matrix(1 0 0 1 231.64 103.75)" id="OBJECTS"  ><rect style="stroke: none; stroke-width: 1; stroke-dasharray: none; stroke-linecap: butt; stroke-dashoffset: 0; stroke-linejoin: miter; stroke-miterlimit: 4; fill: rgb(248,249,250); fill-rule: nonzero; opacity: 1;"  x="-3.135" y="-26.63" rx="0" ry="0" width="6.27" height="53.26" /></g><g transform="matrix(1 0 0 1 238.36 103.75)" id="OBJECTS"  ><rect style="stroke: none; stroke-width: 1; stroke-dasharray: none; stroke-linecap: butt; stroke-dashoffset: 0; stroke-linejoin: miter; stroke-miterlimit: 4; fill: rgb(248,249,250); fill-rule: nonzero; opacity: 1;"  x="-1.57" y="-26.63" rx="0" ry="0" width="3.14" height="53.26" /></g><g transform="matrix(1 0 0 1 243.47 103.75)" id="OBJECTS"  ><rect style="stroke: none; stroke-width: 1; stroke-dasharray: none; stroke-linecap: butt; stroke-dashoffset: 0; stroke-linejoin: miter; stroke-miterlimit: 4; fill: rgb(248,249,250); fill-rule: nonzero; opacity: 1;"  x="-1.57" y="-26.63" rx="0" ry="0" width="3.14" height="53.26" /></g><g transform="matrix(1 0 0 1 248.59 103.75)" id="OBJECTS"  ><rect style="stroke: none; stroke-width: 1; stroke-dasharray: none; stroke-linecap: butt; stroke-dashoffset: 0; stroke-linejoin: miter; stroke-miterlimit: 4; fill: rgb(248,249,250); fill-rule: nonzero; opacity: 1;"  x="-1.57" y="-26.63" rx="0" ry="0" width="3.14" height="53.26" /></g><g transform="matrix(1 0 0 1 269.68 103.75)" id="OBJECTS"  ><rect style="stroke: none; stroke-width: 1; stroke-dasharray: none; stroke-linecap: butt; stroke-dashoffset: 0; stroke-linejoin: miter; stroke-miterlimit: 4; fill: rgb(248,249,250); fill-rule: nonzero; opacity: 1;"  x="-1.565" y="-26.63" rx="0" ry="0" width="3.13" height="53.26" /></g><g transform="matrix(1 0 0 1 274.8 103.75)" id="OBJECTS"  ><rect style="stroke: none; stroke-width: 1; stroke-dasharray: none; stroke-linecap: butt; stroke-dashoffset: 0; stroke-linejoin: miter; stroke-miterlimit: 4; fill: rgb(248,249,250); fill-rule: nonzero; opacity: 1;"  x="-1.57" y="-26.63" rx="0" ry="0" width="3.14" height="53.26" /></g><g transform="matrix(1 0 0 1 279.92 103.75)" id="OBJECTS"  ><rect style="stroke: none; stroke-width: 1; stroke-dasharray: none; stroke-linecap: butt; stroke-dashoffset: 0; stroke-linejoin: miter; stroke-miterlimit: 4; fill: rgb(248,249,250); fill-rule: nonzero; opacity: 1;"  x="-1.565" y="-26.63" rx="0" ry="0" width="3.13" height="53.26" /></g><g transform="matrix(1 0 0 1 254.47 103.75)" id="OBJECTS"  ><rect style="stroke: none; stroke-width: 1; stroke-dasharray: none; stroke-linecap: butt; stroke-dashoffset: 0; stroke-linejoin: miter; stroke-miterlimit: 4; fill: rgb(248,249,250); fill-rule: nonzero; opacity: 1;"  x="-3.135" y="-26.63" rx="0" ry="0" width="6.27" height="53.26" /></g><g transform="matrix(1 0 0 1 262.75 103.75)" id="OBJECTS"  ><rect style="stroke: none; stroke-width: 1; stroke-dasharray: none; stroke-linecap: butt; stroke-dashoffset: 0; stroke-linejoin: miter; stroke-miterlimit: 4; fill: rgb(248,249,250); fill-rule: nonzero; opacity: 1;"  x="-3.135" y="-26.63" rx="0" ry="0" width="6.27" height="53.26" /></g><g transform="matrix(1 0 0 1 286.88 103.75)" id="OBJECTS"  ><rect style="stroke: none; stroke-width: 1; stroke-dasharray: none; stroke-linecap: butt; stroke-dashoffset: 0; stroke-linejoin: miter; stroke-miterlimit: 4; fill: rgb(248,249,250); fill-rule: nonzero; opacity: 1;"  x="-3.135" y="-26.63" rx="0" ry="0" width="6.27" height="53.26" /></g><g transform="matrix(1 0 0 1 294.14 103.75)" id="OBJECTS"  ><rect style="stroke: none; stroke-width: 1; stroke-dasharray: none; stroke-linecap: butt; stroke-dashoffset: 0; stroke-linejoin: miter; stroke-miterlimit: 4; fill: rgb(248,249,250); fill-rule: nonzero; opacity: 1;"  x="-3.135" y="-26.63" rx="0" ry="0" width="6.27" height="53.26" /></g><g transform="matrix(1 0 0 1 297.28 103.75)" id="OBJECTS"  ><rect style="stroke: none; stroke-width: 1; stroke-dasharray: none; stroke-linecap: butt; stroke-dashoffset: 0; stroke-linejoin: miter; stroke-miterlimit: 4; fill: rgb(248,249,250); fill-rule: nonzero; opacity: 1;"  x="-3.135" y="-26.63" rx="0" ry="0" width="6.27" height="53.26" /></g><g transform="matrix(1 0 0 1 303.98 103.75)" id="OBJECTS"  ><rect style="stroke: none; stroke-width: 1; stroke-dasharray: none; stroke-linecap: butt; stroke-dashoffset: 0; stroke-linejoin: miter; stroke-miterlimit: 4; fill: rgb(248,249,250); fill-rule: nonzero; opacity: 1;"  x="-1.565" y="-26.63" rx="0" ry="0" width="3.13" height="53.26" /></g><g transform="matrix(1 0 0 1 309.1 103.75)" id="OBJECTS"  ><rect style="stroke: none; stroke-width: 1; stroke-dasharray: none; stroke-linecap: butt; stroke-dashoffset: 0; stroke-linejoin: miter; stroke-miterlimit: 4; fill: rgb(248,249,250); fill-rule: nonzero; opacity: 1;"  x="-1.565" y="-26.63" rx="0" ry="0" width="3.13" height="53.26" /></g><g transform="matrix(1 0 0 1 314.23 103.75)" id="OBJECTS"  ><rect style="stroke: none; stroke-width: 1; stroke-dasharray: none; stroke-linecap: butt; stroke-dashoffset: 0; stroke-linejoin: miter; stroke-miterlimit: 4; fill: rgb(248,249,250); fill-rule: nonzero; opacity: 1;"  x="-1.57" y="-26.63" rx="0" ry="0" width="3.14" height="53.26" /></g><g transform="matrix(1 0 0 1 335.32 103.75)" id="OBJECTS"  ><rect style="stroke: none; stroke-width: 1; stroke-dasharray: none; stroke-linecap: butt; stroke-dashoffset: 0; stroke-linejoin: miter; stroke-miterlimit: 4; fill: rgb(248,249,250); fill-rule: nonzero; opacity: 1;"  x="-1.57" y="-26.63" rx="0" ry="0" width="3.14" height="53.26" /></g><g transform="matrix(1 0 0 1 340.43 103.75)" id="OBJECTS"  ><rect style="stroke: none; stroke-width: 1; stroke-dasharray: none; stroke-linecap: butt; stroke-dashoffset: 0; stroke-linejoin: miter; stroke-miterlimit: 4; fill: rgb(248,249,250); fill-rule: nonzero; opacity: 1;"  x="-1.57" y="-26.63" rx="0" ry="0" width="3.14" height="53.26" /></g><g transform="matrix(1 0 0 1 345.55 103.75)" id="OBJECTS"  ><rect style="stroke: none; stroke-width: 1; stroke-dasharray: none; stroke-linecap: butt; stroke-dashoffset: 0; stroke-linejoin: miter; stroke-miterlimit: 4; fill: rgb(248,249,250); fill-rule: nonzero; opacity: 1;"  x="-1.57" y="-26.63" rx="0" ry="0" width="3.14" height="53.26" /></g><g transform="matrix(1 0 0 1 320.11 103.75)" id="OBJECTS"  ><rect style="stroke: none; stroke-width: 1; stroke-dasharray: none; stroke-linecap: butt; stroke-dashoffset: 0; stroke-linejoin: miter; stroke-miterlimit: 4; fill: rgb(248,249,250); fill-rule: nonzero; opacity: 1;"  x="-3.135" y="-26.63" rx="0" ry="0" width="6.27" height="53.26" /></g><g transform="matrix(1 0 0 1 328.38 103.75)" id="OBJECTS"  ><rect style="stroke: none; stroke-width: 1; stroke-dasharray: none; stroke-linecap: butt; stroke-dashoffset: 0; stroke-linejoin: miter; stroke-miterlimit: 4; fill: rgb(248,249,250); fill-rule: nonzero; opacity: 1;"  x="-3.135" y="-26.63" rx="0" ry="0" width="6.27" height="53.26" /></g><g transform="matrix(1 0 0 1 352.51 103.75)" id="OBJECTS"  ><rect style="stroke: none; stroke-width: 1; stroke-dasharray: none; stroke-linecap: butt; stroke-dashoffset: 0; stroke-linejoin: miter; stroke-miterlimit: 4; fill: rgb(248,249,250); fill-rule: nonzero; opacity: 1;"  x="-3.135" y="-26.63" rx="0" ry="0" width="6.27" height="53.26" /></g><g transform="matrix(1 0 0 1 357.71 103.75)" id="OBJECTS"  ><rect style="stroke: none; stroke-width: 1; stroke-dasharray: none; stroke-linecap: butt; stroke-dashoffset: 0; stroke-linejoin: miter; stroke-miterlimit: 4; fill: rgb(248,249,250); fill-rule: nonzero; opacity: 1;"  x="-3.08" y="-26.63" rx="0" ry="0" width="6.16" height="53.26" /></g><g transform="matrix(1 0 0 1 334.72 136.37)" style="" id="OBJECTS"  ><text xml:space="preserve" font-family="Bebas" font-size="5.85" font-style="normal" font-weight="normal" style="stroke: none; stroke-width: 1; stroke-dasharray: none; stroke-linecap: butt; stroke-dashoffset: 0; stroke-linejoin: miter; stroke-miterlimit: 4; fill: rgb(248,249,250); fill-rule: nonzero; opacity: 1; white-space: pre;" ><tspan x="-34.29" y="1.84" >09197517 3759231 021 21 A</tspan></text></g></g></g></svg>